<?xml version="1.0" encoding="UTF-8" standalone="no"?>
<!DOCTYPE svg PUBLIC "-//W3C//DTD SVG 1.1//EN"
 "http://www.w3.org/Graphics/SVG/1.1/DTD/svg11.dtd">
<!-- Generated by graphviz version 2.38.0 (20140413.2041)
 -->
<!-- Title: %3 Pages: 1 -->
<svg width="2279pt" height="476pt"
 viewBox="0.00 0.00 2279.00 476.00" xmlns="http://www.w3.org/2000/svg" xmlns:xlink="http://www.w3.org/1999/xlink">
<g id="graph0" class="graph" transform="scale(1 1) rotate(0) translate(4 472)">
<title>%3</title>
<polygon fill="white" stroke="none" points="-4,4 -4,-472 2275,-472 2275,4 -4,4"/>
<!-- [root] aws_instance.node -->
<g id="node1" class="node"><title>[root] aws_instance.node</title>
<polygon fill="none" stroke="black" points="641.5,-252 519.5,-252 519.5,-216 641.5,-216 641.5,-252"/>
<text text-anchor="middle" x="580.5" y="-230.3" font-family="Times New Roman,serif" font-size="14.00">aws_instance.node</text>
</g>
<!-- [root] aws_security_group.sg -->
<g id="node5" class="node"><title>[root] aws_security_group.sg</title>
<polygon fill="none" stroke="black" points="163.5,-180 17.5,-180 17.5,-144 163.5,-144 163.5,-180"/>
<text text-anchor="middle" x="90.5" y="-158.3" font-family="Times New Roman,serif" font-size="14.00">aws_security_group.sg</text>
</g>
<!-- [root] aws_instance.node&#45;&gt;[root] aws_security_group.sg -->
<g id="edge1" class="edge"><title>[root] aws_instance.node&#45;&gt;[root] aws_security_group.sg</title>
<path fill="none" stroke="black" d="M519.459,-226.522C441.531,-217.928 302.354,-201.496 173.791,-180.152"/>
<polygon fill="black" stroke="black" points="174.207,-176.673 163.766,-178.474 173.051,-183.577 174.207,-176.673"/>
</g>
<!-- [root] aws_subnet.new_subnet&#45;1 -->
<g id="node6" class="node"><title>[root] aws_subnet.new_subnet&#45;1</title>
<polygon fill="none" stroke="black" points="1182.5,-180 1018.5,-180 1018.5,-144 1182.5,-144 1182.5,-180"/>
<text text-anchor="middle" x="1100.5" y="-158.3" font-family="Times New Roman,serif" font-size="14.00">aws_subnet.new_subnet&#45;1</text>
</g>
<!-- [root] aws_instance.node&#45;&gt;[root] aws_subnet.new_subnet&#45;1 -->
<g id="edge2" class="edge"><title>[root] aws_instance.node&#45;&gt;[root] aws_subnet.new_subnet&#45;1</title>
<path fill="none" stroke="black" d="M641.761,-226.636C723.119,-217.915 871.51,-201.082 1007.98,-180.187"/>
<polygon fill="black" stroke="black" points="1008.85,-183.594 1018.2,-178.611 1007.78,-176.676 1008.85,-183.594"/>
</g>
<!-- [root] var.aws_existed_key_name -->
<g id="node14" class="node"><title>[root] var.aws_existed_key_name</title>
<polygon fill="none" stroke="black" points="345.5,-180 181.5,-180 181.5,-144 351.5,-144 351.5,-174 345.5,-180"/>
<polyline fill="none" stroke="black" points="345.5,-180 345.5,-174 "/>
<polyline fill="none" stroke="black" points="351.5,-174 345.5,-174 "/>
<text text-anchor="middle" x="266.5" y="-158.3" font-family="Times New Roman,serif" font-size="14.00">var.aws_existed_key_name</text>
</g>
<!-- [root] aws_instance.node&#45;&gt;[root] var.aws_existed_key_name -->
<g id="edge5" class="edge"><title>[root] aws_instance.node&#45;&gt;[root] var.aws_existed_key_name</title>
<path fill="none" stroke="black" d="M519.212,-219.337C471.845,-208.778 405.683,-194.028 352.938,-182.27"/>
<polygon fill="black" stroke="black" points="353.437,-178.795 342.915,-180.035 351.914,-185.627 353.437,-178.795"/>
</g>
<!-- [root] var.key_name -->
<g id="node19" class="node"><title>[root] var.key_name</title>
<polygon fill="none" stroke="black" points="457.5,-180 369.5,-180 369.5,-144 463.5,-144 463.5,-174 457.5,-180"/>
<polyline fill="none" stroke="black" points="457.5,-180 457.5,-174 "/>
<polyline fill="none" stroke="black" points="463.5,-174 457.5,-174 "/>
<text text-anchor="middle" x="416.5" y="-158.3" font-family="Times New Roman,serif" font-size="14.00">var.key_name</text>
</g>
<!-- [root] aws_instance.node&#45;&gt;[root] var.key_name -->
<g id="edge6" class="edge"><title>[root] aws_instance.node&#45;&gt;[root] var.key_name</title>
<path fill="none" stroke="black" d="M540.381,-215.876C517.862,-206.264 489.582,-194.193 465.729,-184.013"/>
<polygon fill="black" stroke="black" points="467.06,-180.775 456.489,-180.068 464.312,-187.213 467.06,-180.775"/>
</g>
<!-- [root] var.user -->
<g id="node23" class="node"><title>[root] var.user</title>
<polygon fill="none" stroke="black" points="537,-180 482,-180 482,-144 543,-144 543,-174 537,-180"/>
<polyline fill="none" stroke="black" points="537,-180 537,-174 "/>
<polyline fill="none" stroke="black" points="543,-174 537,-174 "/>
<text text-anchor="middle" x="512.5" y="-158.3" font-family="Times New Roman,serif" font-size="14.00">var.user</text>
</g>
<!-- [root] aws_instance.node&#45;&gt;[root] var.user -->
<g id="edge7" class="edge"><title>[root] aws_instance.node&#45;&gt;[root] var.user</title>
<path fill="none" stroke="black" d="M563.691,-215.697C555.374,-207.135 545.195,-196.656 536.11,-187.304"/>
<polygon fill="black" stroke="black" points="538.594,-184.838 529.116,-180.104 533.573,-189.716 538.594,-184.838"/>
</g>
<!-- [root] provisioner.file -->
<g id="node24" class="node"><title>[root] provisioner.file</title>
<ellipse fill="none" stroke="black" cx="649.5" cy="-162" rx="88.2844" ry="18"/>
<text text-anchor="middle" x="649.5" y="-158.3" font-family="Times New Roman,serif" font-size="14.00">[root] provisioner.file</text>
</g>
<!-- [root] aws_instance.node&#45;&gt;[root] provisioner.file -->
<g id="edge3" class="edge"><title>[root] aws_instance.node&#45;&gt;[root] provisioner.file</title>
<path fill="none" stroke="black" d="M597.556,-215.697C605.995,-207.135 616.325,-196.656 625.543,-187.304"/>
<polygon fill="black" stroke="black" points="628.113,-189.683 632.64,-180.104 623.127,-184.769 628.113,-189.683"/>
</g>
<!-- [root] provisioner.remote&#45;exec -->
<g id="node25" class="node"><title>[root] provisioner.remote&#45;exec</title>
<ellipse fill="none" stroke="black" cx="878.5" cy="-162" rx="122.379" ry="18"/>
<text text-anchor="middle" x="878.5" y="-158.3" font-family="Times New Roman,serif" font-size="14.00">[root] provisioner.remote&#45;exec</text>
</g>
<!-- [root] aws_instance.node&#45;&gt;[root] provisioner.remote&#45;exec -->
<g id="edge4" class="edge"><title>[root] aws_instance.node&#45;&gt;[root] provisioner.remote&#45;exec</title>
<path fill="none" stroke="black" d="M641.524,-218.666C689.415,-207.416 756.199,-191.728 806.668,-179.873"/>
<polygon fill="black" stroke="black" points="807.599,-183.25 816.534,-177.556 805.998,-176.435 807.599,-183.25"/>
</g>
<!-- [root] aws_internet_gateway.gw -->
<g id="node2" class="node"><title>[root] aws_internet_gateway.gw</title>
<polygon fill="none" stroke="black" points="1360,-180 1201,-180 1201,-144 1360,-144 1360,-180"/>
<text text-anchor="middle" x="1280.5" y="-158.3" font-family="Times New Roman,serif" font-size="14.00">aws_internet_gateway.gw</text>
</g>
<!-- [root] aws_vpc.new_vpc -->
<g id="node7" class="node"><title>[root] aws_vpc.new_vpc</title>
<polygon fill="none" stroke="black" points="1251.5,-108 1129.5,-108 1129.5,-72 1251.5,-72 1251.5,-108"/>
<text text-anchor="middle" x="1190.5" y="-86.3" font-family="Times New Roman,serif" font-size="14.00">aws_vpc.new_vpc</text>
</g>
<!-- [root] aws_internet_gateway.gw&#45;&gt;[root] aws_vpc.new_vpc -->
<g id="edge8" class="edge"><title>[root] aws_internet_gateway.gw&#45;&gt;[root] aws_vpc.new_vpc</title>
<path fill="none" stroke="black" d="M1258.25,-143.697C1246.92,-134.881 1232.97,-124.032 1220.68,-114.474"/>
<polygon fill="black" stroke="black" points="1222.53,-111.481 1212.49,-108.104 1218.24,-117.007 1222.53,-111.481"/>
</g>
<!-- [root] aws_route_table.new_public_route -->
<g id="node3" class="node"><title>[root] aws_route_table.new_public_route</title>
<polygon fill="none" stroke="black" points="1338.5,-252 1126.5,-252 1126.5,-216 1338.5,-216 1338.5,-252"/>
<text text-anchor="middle" x="1232.5" y="-230.3" font-family="Times New Roman,serif" font-size="14.00">aws_route_table.new_public_route</text>
</g>
<!-- [root] aws_route_table.new_public_route&#45;&gt;[root] aws_internet_gateway.gw -->
<g id="edge9" class="edge"><title>[root] aws_route_table.new_public_route&#45;&gt;[root] aws_internet_gateway.gw</title>
<path fill="none" stroke="black" d="M1244.37,-215.697C1250,-207.474 1256.85,-197.483 1263.07,-188.421"/>
<polygon fill="black" stroke="black" points="1266,-190.331 1268.77,-180.104 1260.23,-186.372 1266,-190.331"/>
</g>
<!-- [root] aws_route_table_association.a -->
<g id="node4" class="node"><title>[root] aws_route_table_association.a</title>
<polygon fill="none" stroke="black" points="996.5,-324 808.5,-324 808.5,-288 996.5,-288 996.5,-324"/>
<text text-anchor="middle" x="902.5" y="-302.3" font-family="Times New Roman,serif" font-size="14.00">aws_route_table_association.a</text>
</g>
<!-- [root] aws_route_table_association.a&#45;&gt;[root] aws_route_table.new_public_route -->
<g id="edge10" class="edge"><title>[root] aws_route_table_association.a&#45;&gt;[root] aws_route_table.new_public_route</title>
<path fill="none" stroke="black" d="M982.805,-287.966C1031.01,-277.741 1092.44,-264.71 1142.31,-254.131"/>
<polygon fill="black" stroke="black" points="1143.07,-257.549 1152.12,-252.05 1141.61,-250.701 1143.07,-257.549"/>
</g>
<!-- [root] aws_route_table_association.a&#45;&gt;[root] aws_subnet.new_subnet&#45;1 -->
<g id="edge11" class="edge"><title>[root] aws_route_table_association.a&#45;&gt;[root] aws_subnet.new_subnet&#45;1</title>
<path fill="none" stroke="black" d="M926.383,-287.871C961.838,-262.444 1028.48,-214.654 1068.24,-186.139"/>
<polygon fill="black" stroke="black" points="1070.45,-188.861 1076.53,-180.189 1066.37,-183.173 1070.45,-188.861"/>
</g>
<!-- [root] aws_security_group.sg&#45;&gt;[root] aws_vpc.new_vpc -->
<g id="edge12" class="edge"><title>[root] aws_security_group.sg&#45;&gt;[root] aws_vpc.new_vpc</title>
<path fill="none" stroke="black" d="M163.724,-145.243C166.682,-144.789 169.616,-144.372 172.5,-144 525.802,-98.4502 952.873,-91.7636 1119.29,-90.9861"/>
<polygon fill="black" stroke="black" points="1119.41,-94.4857 1129.39,-90.9447 1119.38,-87.4858 1119.41,-94.4857"/>
</g>
<!-- [root] var.CIDR -->
<g id="node13" class="node"><title>[root] var.CIDR</title>
<polygon fill="none" stroke="black" points="65,-108 0,-108 0,-72 71,-72 71,-102 65,-108"/>
<polyline fill="none" stroke="black" points="65,-108 65,-102 "/>
<polyline fill="none" stroke="black" points="71,-102 65,-102 "/>
<text text-anchor="middle" x="35.5" y="-86.3" font-family="Times New Roman,serif" font-size="14.00">var.CIDR</text>
</g>
<!-- [root] aws_security_group.sg&#45;&gt;[root] var.CIDR -->
<g id="edge13" class="edge"><title>[root] aws_security_group.sg&#45;&gt;[root] var.CIDR</title>
<path fill="none" stroke="black" d="M76.9045,-143.697C70.3773,-135.389 62.432,-125.277 55.2534,-116.141"/>
<polygon fill="black" stroke="black" points="57.8695,-113.805 48.9391,-108.104 52.3653,-118.13 57.8695,-113.805"/>
</g>
<!-- [root] var.ingress_ports -->
<g id="node18" class="node"><title>[root] var.ingress_ports</title>
<polygon fill="none" stroke="black" points="196,-108 89,-108 89,-72 202,-72 202,-102 196,-108"/>
<polyline fill="none" stroke="black" points="196,-108 196,-102 "/>
<polyline fill="none" stroke="black" points="202,-102 196,-102 "/>
<text text-anchor="middle" x="145.5" y="-86.3" font-family="Times New Roman,serif" font-size="14.00">var.ingress_ports</text>
</g>
<!-- [root] aws_security_group.sg&#45;&gt;[root] var.ingress_ports -->
<g id="edge14" class="edge"><title>[root] aws_security_group.sg&#45;&gt;[root] var.ingress_ports</title>
<path fill="none" stroke="black" d="M104.096,-143.697C110.623,-135.389 118.568,-125.277 125.747,-116.141"/>
<polygon fill="black" stroke="black" points="128.635,-118.13 132.061,-108.104 123.131,-113.805 128.635,-118.13"/>
</g>
<!-- [root] aws_subnet.new_subnet&#45;1&#45;&gt;[root] aws_vpc.new_vpc -->
<g id="edge15" class="edge"><title>[root] aws_subnet.new_subnet&#45;1&#45;&gt;[root] aws_vpc.new_vpc</title>
<path fill="none" stroke="black" d="M1122.75,-143.697C1134.08,-134.881 1148.03,-124.032 1160.32,-114.474"/>
<polygon fill="black" stroke="black" points="1162.76,-117.007 1168.51,-108.104 1158.47,-111.481 1162.76,-117.007"/>
</g>
<!-- [root] provider.aws -->
<g id="node10" class="node"><title>[root] provider.aws</title>
<polygon fill="none" stroke="black" points="1190.5,-36 1108.89,-18 1190.5,-3.55271e-015 1272.11,-18 1190.5,-36"/>
<text text-anchor="middle" x="1190.5" y="-14.3" font-family="Times New Roman,serif" font-size="14.00">provider.aws</text>
</g>
<!-- [root] aws_vpc.new_vpc&#45;&gt;[root] provider.aws -->
<g id="edge16" class="edge"><title>[root] aws_vpc.new_vpc&#45;&gt;[root] provider.aws</title>
<path fill="none" stroke="black" d="M1190.5,-71.6966C1190.5,-63.9827 1190.5,-54.7125 1190.5,-46.1124"/>
<polygon fill="black" stroke="black" points="1194,-46.1043 1190.5,-36.1043 1187,-46.1044 1194,-46.1043"/>
</g>
<!-- [root] output.EC2_Public_IP -->
<g id="node8" class="node"><title>[root] output.EC2_Public_IP</title>
<polygon fill="none" stroke="black" points="784.5,-324 646.5,-324 646.5,-288 790.5,-288 790.5,-318 784.5,-324"/>
<polyline fill="none" stroke="black" points="784.5,-324 784.5,-318 "/>
<polyline fill="none" stroke="black" points="790.5,-318 784.5,-318 "/>
<text text-anchor="middle" x="718.5" y="-302.3" font-family="Times New Roman,serif" font-size="14.00">output.EC2_Public_IP</text>
</g>
<!-- [root] output.EC2_Public_IP&#45;&gt;[root] aws_instance.node -->
<g id="edge28" class="edge"><title>[root] output.EC2_Public_IP&#45;&gt;[root] aws_instance.node</title>
<path fill="none" stroke="black" d="M684.741,-287.876C666.28,-278.512 643.218,-266.814 623.483,-256.803"/>
<polygon fill="black" stroke="black" points="624.89,-253.592 614.388,-252.19 621.723,-259.835 624.89,-253.592"/>
</g>
<!-- [root] output.VPC_ID -->
<g id="node9" class="node"><title>[root] output.VPC_ID</title>
<polygon fill="none" stroke="black" points="1577.5,-252 1477.5,-252 1477.5,-216 1583.5,-216 1583.5,-246 1577.5,-252"/>
<polyline fill="none" stroke="black" points="1577.5,-252 1577.5,-246 "/>
<polyline fill="none" stroke="black" points="1583.5,-246 1577.5,-246 "/>
<text text-anchor="middle" x="1530.5" y="-230.3" font-family="Times New Roman,serif" font-size="14.00">output.VPC_ID</text>
</g>
<!-- [root] output.VPC_ID&#45;&gt;[root] aws_vpc.new_vpc -->
<g id="edge29" class="edge"><title>[root] output.VPC_ID&#45;&gt;[root] aws_vpc.new_vpc</title>
<path fill="none" stroke="black" d="M1503.77,-215.851C1472.54,-196.383 1418.85,-164.656 1369.5,-144 1334.81,-129.478 1294.79,-117.231 1261.39,-108.181"/>
<polygon fill="black" stroke="black" points="1262.28,-104.794 1251.71,-105.595 1260.47,-111.557 1262.28,-104.794"/>
</g>
<!-- [root] var.AWS_ACCESS_KEY_ID -->
<g id="node11" class="node"><title>[root] var.AWS_ACCESS_KEY_ID</title>
<polygon fill="none" stroke="black" points="1196.5,-324 1014.5,-324 1014.5,-288 1202.5,-288 1202.5,-318 1196.5,-324"/>
<polyline fill="none" stroke="black" points="1196.5,-324 1196.5,-318 "/>
<polyline fill="none" stroke="black" points="1202.5,-318 1196.5,-318 "/>
<text text-anchor="middle" x="1108.5" y="-302.3" font-family="Times New Roman,serif" font-size="14.00">var.AWS_ACCESS_KEY_ID</text>
</g>
<!-- [root] var.AWS_SECRET_ACCESS_KEY -->
<g id="node12" class="node"><title>[root] var.AWS_SECRET_ACCESS_KEY</title>
<polygon fill="none" stroke="black" points="1442,-324 1221,-324 1221,-288 1448,-288 1448,-318 1442,-324"/>
<polyline fill="none" stroke="black" points="1442,-324 1442,-318 "/>
<polyline fill="none" stroke="black" points="1448,-318 1442,-318 "/>
<text text-anchor="middle" x="1334.5" y="-302.3" font-family="Times New Roman,serif" font-size="14.00">var.AWS_SECRET_ACCESS_KEY</text>
</g>
<!-- [root] var.aws_region -->
<g id="node15" class="node"><title>[root] var.aws_region</title>
<polygon fill="none" stroke="black" points="1561,-324 1466,-324 1466,-288 1567,-288 1567,-318 1561,-324"/>
<polyline fill="none" stroke="black" points="1561,-324 1561,-318 "/>
<polyline fill="none" stroke="black" points="1567,-318 1561,-318 "/>
<text text-anchor="middle" x="1516.5" y="-302.3" font-family="Times New Roman,serif" font-size="14.00">var.aws_region</text>
</g>
<!-- [root] var.connection_timeout -->
<g id="node16" class="node"><title>[root] var.connection_timeout</title>
<polygon fill="none" stroke="black" points="1727.5,-324 1585.5,-324 1585.5,-288 1733.5,-288 1733.5,-318 1727.5,-324"/>
<polyline fill="none" stroke="black" points="1727.5,-324 1727.5,-318 "/>
<polyline fill="none" stroke="black" points="1733.5,-318 1727.5,-318 "/>
<text text-anchor="middle" x="1659.5" y="-302.3" font-family="Times New Roman,serif" font-size="14.00">var.connection_timeout</text>
</g>
<!-- [root] var.environment -->
<g id="node17" class="node"><title>[root] var.environment</title>
<polygon fill="none" stroke="black" points="1851.5,-324 1751.5,-324 1751.5,-288 1857.5,-288 1857.5,-318 1851.5,-324"/>
<polyline fill="none" stroke="black" points="1851.5,-324 1851.5,-318 "/>
<polyline fill="none" stroke="black" points="1857.5,-318 1851.5,-318 "/>
<text text-anchor="middle" x="1804.5" y="-302.3" font-family="Times New Roman,serif" font-size="14.00">var.environment</text>
</g>
<!-- [root] var.owner -->
<g id="node20" class="node"><title>[root] var.owner</title>
<polygon fill="none" stroke="black" points="1979.5,-324 1913.5,-324 1913.5,-288 1985.5,-288 1985.5,-318 1979.5,-324"/>
<polyline fill="none" stroke="black" points="1979.5,-324 1979.5,-318 "/>
<polyline fill="none" stroke="black" points="1985.5,-318 1979.5,-318 "/>
<text text-anchor="middle" x="1949.5" y="-302.3" font-family="Times New Roman,serif" font-size="14.00">var.owner</text>
</g>
<!-- [root] var.priv_key_path -->
<g id="node21" class="node"><title>[root] var.priv_key_path</title>
<polygon fill="none" stroke="black" points="2115.5,-324 2003.5,-324 2003.5,-288 2121.5,-288 2121.5,-318 2115.5,-324"/>
<polyline fill="none" stroke="black" points="2115.5,-324 2115.5,-318 "/>
<polyline fill="none" stroke="black" points="2121.5,-318 2115.5,-318 "/>
<text text-anchor="middle" x="2062.5" y="-302.3" font-family="Times New Roman,serif" font-size="14.00">var.priv_key_path</text>
</g>
<!-- [root] var.public_key_path -->
<g id="node22" class="node"><title>[root] var.public_key_path</title>
<polygon fill="none" stroke="black" points="2265,-324 2140,-324 2140,-288 2271,-288 2271,-318 2265,-324"/>
<polyline fill="none" stroke="black" points="2265,-324 2265,-318 "/>
<polyline fill="none" stroke="black" points="2271,-318 2265,-318 "/>
<text text-anchor="middle" x="2205.5" y="-302.3" font-family="Times New Roman,serif" font-size="14.00">var.public_key_path</text>
</g>
<!-- [root] meta.count&#45;boundary (EachMode fixup) -->
<g id="node26" class="node"><title>[root] meta.count&#45;boundary (EachMode fixup)</title>
<ellipse fill="none" stroke="black" cx="1587.5" cy="-378" rx="180.868" ry="18"/>
<text text-anchor="middle" x="1587.5" y="-374.3" font-family="Times New Roman,serif" font-size="14.00">[root] meta.count&#45;boundary (EachMode fixup)</text>
</g>
<!-- [root] meta.count&#45;boundary (EachMode fixup)&#45;&gt;[root] aws_route_table_association.a -->
<g id="edge17" class="edge"><title>[root] meta.count&#45;boundary (EachMode fixup)&#45;&gt;[root] aws_route_table_association.a</title>
<path fill="none" stroke="black" d="M1444.87,-366.922C1329.39,-358.08 1162.31,-343.745 1006.97,-324.138"/>
<polygon fill="black" stroke="black" points="1007.12,-320.629 996.759,-322.839 1006.24,-327.573 1007.12,-320.629"/>
</g>
<!-- [root] meta.count&#45;boundary (EachMode fixup)&#45;&gt;[root] output.EC2_Public_IP -->
<g id="edge18" class="edge"><title>[root] meta.count&#45;boundary (EachMode fixup)&#45;&gt;[root] output.EC2_Public_IP</title>
<path fill="none" stroke="black" d="M1415.79,-372.359C1258.11,-366.489 1017.95,-353.5 800.83,-324.073"/>
<polygon fill="black" stroke="black" points="801.218,-320.593 790.836,-322.704 800.269,-327.529 801.218,-320.593"/>
</g>
<!-- [root] meta.count&#45;boundary (EachMode fixup)&#45;&gt;[root] output.VPC_ID -->
<g id="edge19" class="edge"><title>[root] meta.count&#45;boundary (EachMode fixup)&#45;&gt;[root] output.VPC_ID</title>
<path fill="none" stroke="black" d="M1751.63,-370.441C1834.85,-361.003 1910.02,-338.922 1866.5,-288 1832.13,-247.785 1681.31,-237.9 1593.86,-235.589"/>
<polygon fill="black" stroke="black" points="1593.86,-232.088 1583.78,-235.349 1593.69,-239.086 1593.86,-232.088"/>
</g>
<!-- [root] meta.count&#45;boundary (EachMode fixup)&#45;&gt;[root] var.AWS_ACCESS_KEY_ID -->
<g id="edge20" class="edge"><title>[root] meta.count&#45;boundary (EachMode fixup)&#45;&gt;[root] var.AWS_ACCESS_KEY_ID</title>
<path fill="none" stroke="black" d="M1484.47,-363.143C1411.37,-353.154 1310.66,-339.078 1212.6,-324.151"/>
<polygon fill="black" stroke="black" points="1212.92,-320.659 1202.51,-322.61 1211.87,-327.579 1212.92,-320.659"/>
</g>
<!-- [root] meta.count&#45;boundary (EachMode fixup)&#45;&gt;[root] var.AWS_SECRET_ACCESS_KEY -->
<g id="edge21" class="edge"><title>[root] meta.count&#45;boundary (EachMode fixup)&#45;&gt;[root] var.AWS_SECRET_ACCESS_KEY</title>
<path fill="none" stroke="black" d="M1529.46,-360.941C1492.74,-350.782 1445.02,-337.577 1405.97,-326.776"/>
<polygon fill="black" stroke="black" points="1406.82,-323.378 1396.25,-324.084 1404.95,-330.124 1406.82,-323.378"/>
</g>
<!-- [root] meta.count&#45;boundary (EachMode fixup)&#45;&gt;[root] var.aws_region -->
<g id="edge22" class="edge"><title>[root] meta.count&#45;boundary (EachMode fixup)&#45;&gt;[root] var.aws_region</title>
<path fill="none" stroke="black" d="M1570.31,-360.055C1561.63,-351.498 1550.94,-340.959 1541.39,-331.535"/>
<polygon fill="black" stroke="black" points="1543.6,-328.804 1534.02,-324.275 1538.69,-333.788 1543.6,-328.804"/>
</g>
<!-- [root] meta.count&#45;boundary (EachMode fixup)&#45;&gt;[root] var.connection_timeout -->
<g id="edge23" class="edge"><title>[root] meta.count&#45;boundary (EachMode fixup)&#45;&gt;[root] var.connection_timeout</title>
<path fill="none" stroke="black" d="M1604.93,-360.055C1613.88,-351.349 1624.95,-340.591 1634.77,-331.043"/>
<polygon fill="black" stroke="black" points="1637.25,-333.512 1641.98,-324.032 1632.37,-328.493 1637.25,-333.512"/>
</g>
<!-- [root] meta.count&#45;boundary (EachMode fixup)&#45;&gt;[root] var.environment -->
<g id="edge24" class="edge"><title>[root] meta.count&#45;boundary (EachMode fixup)&#45;&gt;[root] var.environment</title>
<path fill="none" stroke="black" d="M1638.1,-360.676C1669.11,-350.675 1709.03,-337.796 1742,-327.161"/>
<polygon fill="black" stroke="black" points="1743.1,-330.483 1751.55,-324.082 1740.95,-323.821 1743.1,-330.483"/>
</g>
<!-- [root] meta.count&#45;boundary (EachMode fixup)&#45;&gt;[root] var.owner -->
<g id="edge25" class="edge"><title>[root] meta.count&#45;boundary (EachMode fixup)&#45;&gt;[root] var.owner</title>
<path fill="none" stroke="black" d="M1693.08,-363.342C1753.93,-354.409 1831.59,-341.195 1899.5,-324 1900.77,-323.677 1902.06,-323.337 1903.36,-322.983"/>
<polygon fill="black" stroke="black" points="1904.78,-326.215 1913.38,-320.037 1902.8,-319.499 1904.78,-326.215"/>
</g>
<!-- [root] meta.count&#45;boundary (EachMode fixup)&#45;&gt;[root] var.priv_key_path -->
<g id="edge26" class="edge"><title>[root] meta.count&#45;boundary (EachMode fixup)&#45;&gt;[root] var.priv_key_path</title>
<path fill="none" stroke="black" d="M1710.08,-364.773C1788.56,-356.058 1892.67,-342.857 1993.22,-324.13"/>
<polygon fill="black" stroke="black" points="1994.07,-327.531 2003.25,-322.24 1992.78,-320.652 1994.07,-327.531"/>
</g>
<!-- [root] meta.count&#45;boundary (EachMode fixup)&#45;&gt;[root] var.public_key_path -->
<g id="edge27" class="edge"><title>[root] meta.count&#45;boundary (EachMode fixup)&#45;&gt;[root] var.public_key_path</title>
<path fill="none" stroke="black" d="M1735.35,-367.608C1842.34,-359.62 1990.47,-346.112 2129.73,-324.003"/>
<polygon fill="black" stroke="black" points="2130.42,-327.437 2139.74,-322.396 2129.31,-320.525 2130.42,-327.437"/>
</g>
<!-- [root] provider.aws (close) -->
<g id="node27" class="node"><title>[root] provider.aws (close)</title>
<ellipse fill="none" stroke="black" cx="902.5" cy="-378" rx="108.581" ry="18"/>
<text text-anchor="middle" x="902.5" y="-374.3" font-family="Times New Roman,serif" font-size="14.00">[root] provider.aws (close)</text>
</g>
<!-- [root] provider.aws (close)&#45;&gt;[root] aws_instance.node -->
<g id="edge30" class="edge"><title>[root] provider.aws (close)&#45;&gt;[root] aws_instance.node</title>
<path fill="none" stroke="black" d="M826.886,-364.978C754.2,-352.925 653.118,-334.668 637.5,-324 615.235,-308.791 599.749,-281.716 590.596,-261.41"/>
<polygon fill="black" stroke="black" points="593.754,-259.891 586.61,-252.066 587.315,-262.638 593.754,-259.891"/>
</g>
<!-- [root] provider.aws (close)&#45;&gt;[root] aws_route_table_association.a -->
<g id="edge31" class="edge"><title>[root] provider.aws (close)&#45;&gt;[root] aws_route_table_association.a</title>
<path fill="none" stroke="black" d="M902.5,-359.697C902.5,-351.983 902.5,-342.712 902.5,-334.112"/>
<polygon fill="black" stroke="black" points="906,-334.104 902.5,-324.104 899,-334.104 906,-334.104"/>
</g>
<!-- [root] provisioner.file (close) -->
<g id="node28" class="node"><title>[root] provisioner.file (close)</title>
<ellipse fill="none" stroke="black" cx="660.5" cy="-378" rx="115.88" ry="18"/>
<text text-anchor="middle" x="660.5" y="-374.3" font-family="Times New Roman,serif" font-size="14.00">[root] provisioner.file (close)</text>
</g>
<!-- [root] provisioner.file (close)&#45;&gt;[root] aws_instance.node -->
<g id="edge32" class="edge"><title>[root] provisioner.file (close)&#45;&gt;[root] aws_instance.node</title>
<path fill="none" stroke="black" d="M637.413,-360.164C625.981,-350.717 612.871,-338.023 604.5,-324 593.186,-305.047 587.097,-280.681 583.887,-262.237"/>
<polygon fill="black" stroke="black" points="587.312,-261.488 582.311,-252.148 580.396,-262.568 587.312,-261.488"/>
</g>
<!-- [root] provisioner.remote&#45;exec (close) -->
<g id="node29" class="node"><title>[root] provisioner.remote&#45;exec (close)</title>
<ellipse fill="none" stroke="black" cx="377.5" cy="-378" rx="149.473" ry="18"/>
<text text-anchor="middle" x="377.5" y="-374.3" font-family="Times New Roman,serif" font-size="14.00">[root] provisioner.remote&#45;exec (close)</text>
</g>
<!-- [root] provisioner.remote&#45;exec (close)&#45;&gt;[root] aws_instance.node -->
<g id="edge33" class="edge"><title>[root] provisioner.remote&#45;exec (close)&#45;&gt;[root] aws_instance.node</title>
<path fill="none" stroke="black" d="M401.584,-360.153C437.961,-334.707 506.999,-286.414 547.862,-257.831"/>
<polygon fill="black" stroke="black" points="549.944,-260.646 556.132,-252.046 545.931,-254.91 549.944,-260.646"/>
</g>
<!-- [root] root -->
<g id="node30" class="node"><title>[root] root</title>
<ellipse fill="none" stroke="black" cx="781.5" cy="-450" rx="49.2915" ry="18"/>
<text text-anchor="middle" x="781.5" y="-446.3" font-family="Times New Roman,serif" font-size="14.00">[root] root</text>
</g>
<!-- [root] root&#45;&gt;[root] meta.count&#45;boundary (EachMode fixup) -->
<g id="edge34" class="edge"><title>[root] root&#45;&gt;[root] meta.count&#45;boundary (EachMode fixup)</title>
<path fill="none" stroke="black" d="M828.91,-444.883C947.615,-434.573 1261.3,-407.33 1446.01,-391.289"/>
<polygon fill="black" stroke="black" points="1446.41,-394.767 1456.07,-390.415 1445.8,-387.793 1446.41,-394.767"/>
</g>
<!-- [root] root&#45;&gt;[root] provider.aws (close) -->
<g id="edge35" class="edge"><title>[root] root&#45;&gt;[root] provider.aws (close)</title>
<path fill="none" stroke="black" d="M806.866,-434.326C823.736,-424.566 846.185,-411.579 865.092,-400.641"/>
<polygon fill="black" stroke="black" points="866.87,-403.656 873.773,-395.619 863.365,-397.597 866.87,-403.656"/>
</g>
<!-- [root] root&#45;&gt;[root] provisioner.file (close) -->
<g id="edge36" class="edge"><title>[root] root&#45;&gt;[root] provisioner.file (close)</title>
<path fill="none" stroke="black" d="M756.134,-434.326C739.264,-424.566 716.815,-411.579 697.908,-400.641"/>
<polygon fill="black" stroke="black" points="699.635,-397.597 689.227,-395.619 696.13,-403.656 699.635,-397.597"/>
</g>
<!-- [root] root&#45;&gt;[root] provisioner.remote&#45;exec (close) -->
<g id="edge37" class="edge"><title>[root] root&#45;&gt;[root] provisioner.remote&#45;exec (close)</title>
<path fill="none" stroke="black" d="M737.881,-441.442C673.866,-430.351 552.981,-409.405 468.962,-394.847"/>
<polygon fill="black" stroke="black" points="469.355,-391.363 458.905,-393.105 468.16,-398.261 469.355,-391.363"/>
</g>
</g>
</svg>
